<?xml version="1.0" encoding="utf-8"?>
<!-- Generator: Adobe Illustrator 24.3.0, SVG Export Plug-In . SVG Version: 6.00 Build 0)  -->
<svg version="1.1" id="Layer_1" xmlns="http://www.w3.org/2000/svg" xmlns:xlink="http://www.w3.org/1999/xlink" x="0px" y="0px"
	 viewBox="0 0 350 350" enable-background="new 0 0 350 350" xml:space="preserve">
<g>
	<path fill="#2AA9E1" d="M32.201,272.31c0,3.215,2.606,5.824,5.825,5.824h197.416c0.002,0,0.008,0,0.01,0c0.002,0,0.007,0,0.009,0
		h76.516c2.534,0,4.778-1.641,5.544-4.055c0.774-2.413-0.107-5.05-2.172-6.518l-128.045-90.964l26.395-36.878
		c1.873-2.612,1.271-6.252-1.346-8.124l-71.821-51.412c-2.615-1.872-6.25-1.271-8.122,1.349l-26.607,37.164L41.398,72.942
		c-2.619-1.861-6.256-1.248-8.121,1.374c-1.864,2.621-1.245,6.259,1.376,8.123l118.169,83.946v35.935l-2.753-2.752
		c-2.27-2.274-5.959-2.274-8.236,0c-2.273,2.274-2.273,5.962,0,8.234l12.696,12.693c0.083,0.086,0.186,0.15,0.276,0.229
		c0.103,0.089,0.205,0.17,0.314,0.256c0.396,0.306,0.815,0.568,1.26,0.756c0.013,0.007,0.026,0.018,0.037,0.022
		c0.006,0.004,0.01,0.004,0.015,0.006c0.3,0.122,0.608,0.208,0.918,0.279c0.06,0.013,0.12,0.04,0.178,0.051
		c0.342,0.068,0.693,0.097,1.04,0.102c0.028,0,0.054,0.007,0.079,0.007l0,0c0.374,0,0.753-0.034,1.124-0.109
		c0.056-0.011,0.111-0.037,0.165-0.047c0.311-0.071,0.623-0.157,0.918-0.276c0.069-0.028,0.126-0.07,0.193-0.102
		c0.28-0.124,0.556-0.259,0.813-0.433c0.325-0.21,0.627-0.458,0.907-0.74l13.031-13.029c2.273-2.27,2.273-5.959,0-8.234
		c-2.272-2.275-5.961-2.275-8.236,0l-3.092,3.088v-27.659l64.794,46.031c-8.26,3.951-14.718,11.125-17.003,19.623
		c-2.517,9.368-0.381,18.9,4.969,26.168H38.026C34.808,266.483,32.201,269.092,32.201,272.31z M164.468,160.375v-18.022
		c4.263-2.145,7.211-6.508,7.211-11.603c0-7.196-5.833-13.029-13.034-13.029c-7.194,0-13.029,5.833-13.029,13.029
		c0,5.095,2.948,9.458,7.206,11.603v9.748l-37.524-26.659l23.191-32.397l62.346,44.635l-23.024,32.174L164.468,160.375z
		 M223.506,243.336c1.923-7.143,9.516-13.228,17.666-14.148c0.011,0,0.026-0.006,0.038-0.006l52.512,37.302h-57.379
		C226.578,263.5,220.839,253.273,223.506,243.336z"/>
</g>
</svg>
